:FULLY-SPECIFIED
:FORCE-ALL-JOINTS-BE-3DOF
:DEGREES
2650
root -1.48281 15.2617 -28.6428 169.381 -66.6446 -173.979
lfemur -53.4985 25.8372 -10.8
ltibia 54.8047 -0 0
lfoot 11.0353 9.31716 0.167293
ltoes -20.4837 0 0
rfemur -33.1996 -15.2812 23.3271
rtibia 68.0206 -0 0
rfoot -24.6089 -4.87334 0.113242
rtoes -6.27772 0 0
lowerback 18.972 5.11354 0.327502
upperback -0.0812235 6.81729 0.293633
thorax -10.7796 3.17136 -1.72213
lowerneck -2.27251 10.5241 0.242941
upperneck 5.12976 14.0192 0.236205
head 1.94939 6.99061 0.352551
lclavicle -2.75946e-14 -3.18055e-15 0
lhumerus 57.3837 -30.0841 45.454
lradius 106.816 -0 0
lwrist -38.619 0 0
lhand -39.2253 25.2767 -0.273942
lfingers 7.12502 -0 0
lthumb -12.2214 54.9303 -0.267125
rclavicle -2.75946e-14 -3.18055e-15 0
rhumerus -8.88322 79.5287 -84.3001
rradius 105.351 -0 0
rwrist -46.7581 0 0
rhand 4.40087 -31.2719 0.0559896
rfingers 7.12502 -0 0
rthumb 29.8256 -59.2507 -0.0130548
2651
root -1.60798 15.2469 -28.6148 170.112 -64.8373 -175.014
lfemur -53.0931 26.2689 -10.4792
ltibia 52.6439 -0 0
lfoot 12.4129 9.31303 0.198681
ltoes -18.3797 0 0
rfemur -32.5886 -15.0053 22.9355
rtibia 68.1325 -0 0
rfoot -24.9527 -4.93078 0.12728
rtoes -6.446 0 0
lowerback 18.8703 5.31033 0.600719
upperback -0.0891356 7.1297 0.19251
thorax -10.6973 3.30361 -2.05532
lowerneck -2.22131 10.7852 0.518196
upperneck 5.35954 14.366 0.0624578
head 2.0402 7.16219 0.271036
lclavicle -2.75946e-14 -3.18055e-15 0
lhumerus 52.9728 -28.5335 48.3702
lradius 106.562 -0 0
lwrist -40.6895 0 0
lhand -39.7124 24.6943 -0.340487
lfingers 7.12502 -0 0
lthumb -12.6912 54.3275 -0.332198
rclavicle -2.75946e-14 -3.18055e-15 0
rhumerus -15.4929 79.8209 -89.9612
rradius 106.778 -0 0
rwrist -50.9516 0 0
rhand 5.06048 -30.7804 0.044853
rfingers 7.12502 -0 0
rthumb 30.4608 -58.7234 -0.0377772
2652
root -1.73314 15.2321 -28.5867 170.637 -63.3873 -175.816
lfemur -52.5082 26.6112 -10.133
ltibia 50.8095 -0 0
lfoot 13.6316 9.40178 0.213467
ltoes -16.2652 0 0
rfemur -32.0791 -14.8223 22.5715
rtibia 68.2091 -0 0
rfoot -25.2013 -5.01328 0.131837
rtoes -6.57298 0 0
lowerback 18.7632 5.46318 0.841279
upperback -0.0944807 7.37813 0.113072
thorax -10.6098 3.40892 -2.32867
lowerneck -2.18121 10.9829 0.755904
upperneck 5.56858 14.6281 -0.0743214
head 2.12429 7.29194 0.205127
lclavicle -2.75946e-14 -3.18055e-15 0
lhumerus 49.0671 -27.1228 50.9
lradius 106.469 -0 0
lwrist -42.1138 0 0
lhand -40.0987 24.2843 -0.390014
lfingers 7.12502 -0 0
lthumb -13.0637 53.9005 -0.380675
rclavicle -2.75946e-14 -3.18055e-15 0
rhumerus -21.1836 79.729 -94.7018
rradius 107.989 -0 0
rwrist -54.4598 0 0
rhand 5.46511 -30.2842 0.0255586
rfingers 7.12502 -0 0
rthumb 30.8505 -58.2092 -0.0657362
2653
root -1.85831 15.2173 -28.5587 171.017 -62.2603 -176.45
lfemur -51.7686 26.8775 -9.76287
ltibia 49.2753 -0 0
lfoot 14.6997 9.56655 0.211471
ltoes -14.153 0 0
rfemur -31.6599 -14.7249 22.231
rtibia 68.2603 -0 0
rfoot -25.3685 -5.12521 0.128399
rtoes -6.66705 0 0
lowerback 18.6503 5.57695 1.05213
upperback -0.0986459 7.56963 0.0539464
thorax -10.5187 3.49026 -2.54741
lowerneck -2.15193 11.1232 0.960104
upperneck 5.75954 14.8134 -0.177606
head 2.20254 7.38386 0.153309
lclavicle -2.75946e-14 -3.18055e-15 0
lhumerus 45.5607 -25.8592 53.1388
lradius 106.514 -0 0
lwrist -42.9497 0 0
lhand -40.3951 24.0304 -0.421967
lfingers 7.12502 -0 0
lthumb -13.3495 53.6323 -0.411985
rclavicle -2.75946e-14 -3.18055e-15 0
rhumerus -25.6546 79.326 -98.2149
rradius 109.006 -0 0
rwrist -57.3645 0 0
rhand 5.64236 -29.785 0.00160894
rfingers 7.12502 -0 0
rthumb 31.0213 -57.7073 -0.0937788
2654
root -1.98347 15.2024 -28.5306 171.293 -61.4212 -176.953
lfemur -50.899 27.0817 -9.37081
ltibia 48.0151 -0 0
lfoot 15.6255 9.79066 0.193738
ltoes -12.0559 0 0
rfemur -31.3202 -14.7052 21.9106
rtibia 68.2961 -0 0
rfoot -25.4677 -5.27098 0.118498
rtoes -6.73662 0 0
lowerback 18.5312 5.65647 1.23623
upperback -0.103109 7.71125 0.0137357
thorax -10.4256 3.55058 -2.71676
lowerneck -2.13301 11.2123 1.13491
upperneck 5.9349 14.9298 -0.250764
head 2.27581 7.44194 0.114087
lclavicle -2.75946e-14 -3.18055e-15 0
lhumerus 42.3633 -24.7329 55.1655
lradius 106.674 -0 0
lwrist -43.2553 0 0
lhand -40.6123 23.916 -0.436847
lfingers 7.12502 -0 0
lthumb -13.5589 53.5061 -0.426597
rclavicle -2.75946e-14 -3.18055e-15 0
rhumerus -28.9021 78.6735 -100.491
rradius 109.853 -0 0
rwrist -59.748 0 0
rhand 5.61989 -29.2842 -0.0239217
rfingers 7.12502 -0 0
rthumb 30.9998 -57.217 -0.119372
2655
root -2.10864 15.1876 -28.5026 171.489 -60.8342 -177.35
lfemur -49.9242 27.2375 -8.9591
ltibia 47.0028 -0 0
lfoot 16.4174 10.0576 0.162274
ltoes -9.98679 0 0
rfemur -31.0496 -14.7552 21.6072
rtibia 68.3264 -0 0
rfoot -25.5125 -5.45501 0.103704
rtoes -6.78725 0 0
lowerback 18.4057 5.70659 1.39653
upperback -0.10942 7.81004 -0.00897679
thorax -10.3323 3.59286 -2.84193
lowerneck -2.12384 11.2565 1.28449
upperneck 6.09706 14.9855 -0.297079
head 2.34489 7.47019 0.0859836
lclavicle -2.75946e-14 -3.18055e-15 0
lhumerus 39.3971 -23.721 57.0448
lradius 106.926 -0 0
lwrist -43.0887 0 0
lhand -40.7609 23.9247 -0.435952
lfingers 7.12502 -0 0
lthumb -13.7021 53.5054 -0.425764
rclavicle -2.75946e-14 -3.18055e-15 0
rhumerus -31.1159 77.8176 -101.714
rradius 110.552 -0 0
rwrist -61.692 0 0
rhand 5.42537 -28.7833 -0.0484208
rfingers 7.12502 -0 0
rthumb 30.8127 -56.7378 -0.140565
2656
root -2.2338 15.1728 -28.4745 171.621 -60.4634 -177.658
lfemur -48.8687 27.3592 -8.52985
ltibia 46.212 -0 0
lfoot 17.0834 10.3511 0.119806
ltoes -7.95835 0 0
rfemur -30.8379 -14.8666 21.3183
rtibia 68.3611 -0 0
rfoot -25.5166 -5.68174 0.0856053
rtoes -6.8359 0 0
lowerback 18.2736 5.73217 1.53598
upperback -0.119182 7.87302 -0.0156183
thorax -10.2405 3.62005 -2.92815
lowerneck -2.12371 11.2617 1.41307
upperneck 6.24828 14.9883 -0.31976
head 2.41058 7.47263 0.0675373
lclavicle -2.75946e-14 -3.18055e-15 0
lhumerus 36.5947 -22.7908 58.8298
lradius 107.25 -0 0
lwrist -42.5078 0 0
lhand -40.8514 24.0405 -0.421148
lfingers 7.12502 -0 0
lthumb -13.7893 53.6135 -0.411304
rclavicle -2.75946e-14 -3.18055e-15 0
rhumerus -32.5605 76.79 -102.142
rradius 111.127 -0 0
rwrist -63.2787 0 0
rhand 5.0865 -28.2836 -0.069764
rfingers 7.12502 -0 0
rthumb 30.4868 -56.269 -0.155951
2657
root -2.35897 15.158 -28.4465 171.699 -60.2726 -177.887
lfemur -47.7568 27.4613 -8.0848
ltibia 45.6166 -0 0
lfoot 17.6321 10.6549 0.0695705
ltoes -5.98342 0 0
rfemur -30.675 -15.0312 21.0415
rtibia 68.4102 -0 0
rfoot -25.4934 -5.95563 0.0657779
rtoes -6.88241 0 0
lowerback 18.1348 5.73806 1.65752
upperback -0.134038 7.90726 -0.0076215
thorax -10.1522 3.63513 -2.98063
lowerneck -2.13181 11.2342 1.52491
upperneck 6.3908 14.9466 -0.32196
head 2.47365 7.45327 0.0572981
lclavicle -2.75946e-14 -3.18055e-15 0
lhumerus 33.897 -21.9024 60.5635
lradius 107.621 -0 0
lwrist -41.5707 0 0
lhand -40.8942 24.247 -0.394672
lfingers 7.12502 -0 0
lthumb -13.8304 53.8139 -0.385402
rclavicle -2.75946e-14 -3.18055e-15 0
rhumerus -33.4973 75.6137 -102.03
rradius 111.604 -0 0
rwrist -64.5901 0 0
rhand 4.63101 -27.7869 -0.0863345
rfingers 7.12502 -0 0
rthumb 30.0487 -55.8103 -0.164637
2658
root -2.48413 15.1431 -28.4184 171.73 -60.2254 -178.044
lfemur -46.6123 27.5586 -7.62511
ltibia 45.1904 -0 0
lfoot 18.0716 10.9528 0.015125
ltoes -4.07478 0 0
rfemur -30.5511 -15.2403 20.7747
rtibia 68.4834 -0 0
rfoot -25.4566 -6.28111 0.0457484
rtoes -6.93805 0 0
lowerback 17.9891 5.72914 1.76407
upperback -0.155654 7.91979 0.0135792
thorax -10.0692 3.64111 -3.00456
lowerneck -2.14729 11.18 1.62429
upperneck 6.52679 14.8683 -0.306782
head 2.53486 7.41615 0.0538267
lclavicle -2.75946e-14 -3.18055e-15 0
lhumerus 31.2527 -21.0096 62.2798
lradius 108.018 -0 0
lwrist -40.3353 0 0
lhand -40.8995 24.528 -0.358974
lfingers 7.12502 -0 0
lthumb -13.8355 54.09 -0.350453
rclavicle -2.75946e-14 -3.18055e-15 0
rhumerus -34.149 74.3067 -101.595
rradius 111.996 -0 0
rwrist -65.7081 0 0
rhand 4.08663 -27.2945 -0.097036
rfingers 7.12502 -0 0
rthumb 29.5251 -55.3611 -0.166215
2659
root -2.6093 15.1283 -28.3904 171.718 -60.2853 -178.133
lfemur -45.4585 27.6662 -7.15125
ltibia 44.9072 -0 0
lfoot 18.4104 11.229 -0.0398126
ltoes -2.24524 0 0
rfemur -30.4564 -15.4854 20.516
rtibia 68.5908 -0 0
rfoot -25.4198 -6.6626 0.0269405
rtoes -7.01121 0 0
lowerback 17.8365 5.71027 1.85854
upperback -0.185709 7.91767 0.0465492
thorax -9.99338 3.641 -3.00516
lowerneck -2.16925 11.1052 1.71551
upperneck 6.65843 14.7616 -0.277286
head 2.59499 7.36528 0.0556931
lclavicle -2.75946e-14 -3.18055e-15 0
lhumerus 28.617 -20.0609 64.0047
lradius 108.419 -0 0
lwrist -38.8597 0 0
lhand -40.8779 24.8675 -0.316575
lfingers 7.12502 -0 0
lthumb -13.8145 54.4253 -0.308928
rclavicle -2.75946e-14 -3.18055e-15 0
rhumerus -34.6902 72.8855 -101.006
rradius 112.337 -0 0
rwrist -66.7148 0 0
rhand 3.4811 -26.8083 -0.101298
rfingers 7.12502 -0 0
rthumb 28.9426 -54.921 -0.160734
2660
root -2.73446 15.1135 -28.3623 171.665 -60.4159 -178.157
lfemur -44.3181 27.7995 -6.66293
ltibia 44.7407 -0 0
lfoot 18.657 11.4672 -0.091503
ltoes -0.507593 0 0
rfemur -30.3812 -15.7577 20.2633
rtibia 68.7422 -0 0
rfoot -25.3965 -7.10452 0.0106152
rtoes -7.11031 0 0
lowerback 17.677 5.68635 1.94384
upperback -0.225886 7.90796 0.0898532
thorax -9.92671 3.63784 -2.9876
lowerneck -2.19678 11.0159 1.80287
upperneck 6.78789 14.6347 -0.236493
head 2.65478 7.30471 0.0614749
lclavicle -2.75946e-14 -3.18055e-15 0
lhumerus 25.9516 -19.0008 65.7559
lradius 108.8 -0 0
lwrist -37.2018 0 0
lhand -40.8396 25.2491 -0.269966
lfingers 7.12502 -0 0
lthumb -13.7775 54.8032 -0.263269
rclavicle -2.75946e-14 -3.18055e-15 0
rhumerus -35.2509 71.366 -100.385
rradius 112.647 -0 0
rwrist -67.6921 0 0
rhand 2.84217 -26.3297 -0.0990748
rfingers 7.12502 -0 0
rthumb 28.3281 -54.4896 -0.148675
2661
root -2.85963 15.0987 -28.3343 171.573 -60.5805 -178.119
lfemur -43.2132 27.9746 -6.15916
ltibia 44.6648 -0 0
lfoot 18.82 11.6516 -0.136299
ltoes 1.12538 -0 0
rfemur -30.3159 -16.0483 20.0146
rtibia 68.9475 -0 0
rfoot -25.4004 -7.61129 -0.00220184
rtoes -7.24374 0 0
lowerback 17.5105 5.66228 2.02282
upperback -0.277863 7.89771 0.142052
thorax -9.87108 3.63469 -2.95706
lowerneck -2.22895 10.9183 1.89066
upperneck 6.91737 14.4957 -0.18739
head 2.715 7.23847 0.0697576
lclavicle -2.75946e-14 -3.18055e-15 0
lhumerus 23.2248 -17.7697 67.5427
lradius 109.14 -0 0
lwrist -35.4197 0 0
lhand -40.7951 25.6568 -0.221526
lfingers 7.12502 -0 0
lthumb -13.7345 55.2073 -0.215814
rclavicle -2.75946e-14 -3.18055e-15 0
rhumerus -35.9247 69.764 -99.8208
rradius 112.947 -0 0
rwrist -68.7221 0 0
rhand 2.19757 -25.8604 -0.0908343
rfingers 7.12502 -0 0
rthumb 27.708 -54.0664 -0.13093
2662
root -2.98479 15.0838 -28.3062 171.443 -60.7425 -178.02
lfemur -42.1654 28.2074 -5.63827
ltibia 44.6533 -0 0
lfoot 18.9078 11.7661 -0.170734
ltoes 2.64087 -0 0
rfemur -30.2511 -16.3484 19.7678
rtibia 69.2168 -0 0
rfoot -25.4452 -8.1873 -0.0108027
rtoes -7.41993 0 0
lowerback 17.3371 5.64296 2.09833
upperback -0.343305 7.89401 0.201698
thorax -9.82842 3.63464 -2.9187
lowerneck -2.26484 10.8184 1.98318
upperneck 7.0491 14.3529 -0.132931
head 2.77641 7.17059 0.0791337
lclavicle -2.75946e-14 -3.18055e-15 0
lhumerus 20.4112 -16.3048 69.3658
lradius 109.416 -0 0
lwrist -33.5714 0 0
lhand -40.755 26.0742 -0.17348
lfingers 7.12502 -0 0
lthumb -13.6957 55.621 -0.168752
rclavicle -2.75946e-14 -3.18055e-15 0
rhumerus -36.778 68.0957 -99.3721
rradius 113.262 -0 0
rwrist -69.8868 0 0
rhand 1.57502 -25.4021 -0.0775411
rfingers 7.12502 -0 0
rthumb 27.1091 -53.6511 -0.108783
